<svg t="1706877453567" class="icon" viewBox="0 0 1024 1024" version="1.1" xmlns="http://www.w3.org/2000/svg" p-id="6290"
	width="200" height="200">
	<path
		d="M930.773333 366.08h49.066667v-142.506667c0-40.32-32.853333-73.386667-73.386667-73.386666H118.613333c-40.32 0-73.386667 32.853333-73.386666 73.386666v142.506667h49.066666c17.706667 0 32.64 12.8 33.493334 28.373333 0.426667 8.32-2.56 16.213333-8.106667 22.186667-5.76 5.973333-13.44 9.386667-21.76 9.386667H45.226667v373.546666c0 40.32 32.853333 73.386667 73.386666 73.386667h136.32v-153.386667h80.64v153.386667H906.666667c40.32 0 73.386667-32.853333 73.386666-73.386667V426.026667h-52.693333c-8.32 0-16-3.413333-21.76-9.386667s-8.533333-13.866667-8.106667-22.186667c0.64-15.573333 15.786667-28.373333 33.28-28.373333z m-71.68 94.72c15.146667 15.786667 35.2 26.026667 56.746667 28.586667v310.186666c0 5.12-4.266667 9.386667-9.386667 9.386667h-60.373333v-143.786667h-64v143.786667h-45.013333v-143.786667h-64v143.786667h-45.013334v-143.786667h-64v143.786667h-45.013333v-143.786667h-64v143.786667h-55.893333v-153.386667H190.933333v153.386667H118.613333c-5.12 0-9.386667-4.266667-9.386666-9.386667V489.386667c21.546667-2.56 41.813333-12.8 56.746666-28.586667 17.92-18.773333 27.093333-43.52 25.6-69.76-2.346667-45.013333-37.546667-81.28-82.56-87.893333v-79.573334c0-5.12 4.266667-9.386667 9.386667-9.386666H906.666667c5.12 0 9.386667 4.266667 9.386666 9.386666v79.573334c-45.013333 6.613333-80 42.88-82.56 87.893333a93.013333 93.013333 0 0 0 25.6 69.76z"
		p-id="6291" fill="#1296db"></path>
	<path d="M261.12 499.2h501.76v-201.6H261.12v201.6z m64-137.6h373.76v73.6H325.12v-73.6z" p-id="6292" fill="#1296db">
	</path>
</svg>